<svg xmlns="http://www.w3.org/2000/svg" width="27" height="28" viewBox="0 0 27 28" fill="none">
  <g clip-path="url(#clip0_71_10020)">
    <path fill-rule="evenodd" clip-rule="evenodd" d="M0.0460205 14.191C0.0460205 20.7307 4.79567 26.1687 11.0076 27.2715V17.7711H7.71912V14.1176H11.0076V11.1941C11.0076 7.90567 13.1265 6.07948 16.1233 6.07948C17.0726 6.07948 18.0964 6.22527 19.0457 6.37105V9.73297H17.3653C15.7572 9.73297 15.3922 10.5364 15.3922 11.5603V14.1176H18.8999L18.3157 17.7711H15.3922V27.2715C21.6041 26.1687 26.3538 20.7318 26.3538 14.191C26.3538 6.91584 20.4345 0.963715 13.1999 0.963715C5.96526 0.963715 0.0460205 6.91584 0.0460205 14.191Z" fill="#474885"/>
  </g>
  <defs>
    <clipPath id="clip0_71_10020">
      <rect width="26.3078" height="26.3078" fill="white" transform="translate(0.0460205 0.963715)"/>
    </clipPath>
  </defs>
</svg>