<svg xmlns="http://www.w3.org/2000/svg" width="27" height="28" viewBox="0 0 27 28" fill="none">
  <g clip-path="url(#clip0_45_9842)">
    <path fill-rule="evenodd" clip-rule="evenodd" d="M0.0462646 14.0391C0.0462646 20.5496 4.77471 25.9634 10.9589 27.0612V17.6032H7.68512V13.966H10.9589V11.0556C10.9589 7.78183 13.0683 5.96378 16.0518 5.96378C16.9969 5.96378 18.0161 6.10892 18.9612 6.25406V9.60097H17.2882C15.6874 9.60097 15.324 10.4009 15.324 11.4201V13.966H18.816L18.2344 17.6032H15.324V27.0612C21.5082 25.9634 26.2366 20.5507 26.2366 14.0391C26.2366 6.79642 20.3438 0.87085 13.1414 0.87085C5.93909 0.87085 0.0462646 6.79642 0.0462646 14.0391Z" fill="#333333"/>
  </g>
  <defs>
    <clipPath id="clip0_45_9842">
      <rect width="26.1903" height="26.1903" fill="white" transform="translate(0.0462646 0.87085)"/>
    </clipPath>
  </defs>
</svg>