<svg xmlns="http://www.w3.org/2000/svg" width="28" height="28" viewBox="0 0 28 28" fill="none">
  <g clip-path="url(#clip0_45_9816)">
    <path fill-rule="evenodd" clip-rule="evenodd" d="M14.0346 0.87085C6.80173 0.87085 0.939453 6.73421 0.939453 13.966C0.939453 21.1978 6.80173 27.0612 14.0346 27.0612C21.2664 27.0612 27.1298 21.1978 27.1298 13.966C27.1298 6.73421 21.2664 0.87085 14.0346 0.87085ZM14.1874 21.6245C9.96639 21.6245 6.54855 18.1979 6.54855 13.966C6.54855 9.7341 9.96639 6.30753 14.1874 6.30753C16.2499 6.30753 17.9741 7.06814 19.2967 8.30345L17.1425 10.462V10.4576C16.3405 9.69154 15.3234 9.29869 14.1874 9.29869C11.6666 9.29869 9.61828 11.4332 9.61828 13.9617C9.61828 16.4879 11.6666 18.629 14.1874 18.629C16.4747 18.629 18.0308 17.3173 18.3517 15.5167H14.1874V12.5299H21.3734C21.4694 13.0428 21.5207 13.5775 21.5207 14.1384C21.5207 18.5144 18.5994 21.6245 14.1874 21.6245Z" fill="#333333"/>
  </g>
  <defs>
    <clipPath id="clip0_45_9816">
      <rect width="26.1903" height="26.1903" fill="white" transform="translate(0.939453 0.87085)"/>
    </clipPath>
  </defs>
</svg>