<svg xmlns="http://www.w3.org/2000/svg" width="27" height="28" viewBox="0 0 27 28" fill="none">
  <rect x="0.152954" y="0.87085" width="26.1903" height="26.1903" rx="13.0952" fill="#333333"/>
  <path d="M19.7957 8.44291V19.8778C19.7957 20.2769 19.6796 20.6342 19.4473 20.9498C19.215 21.2595 18.9023 21.468 18.5093 21.5752L13.3904 23.0492C13.3189 23.0671 13.2385 23.085 13.1491 23.1028H12.9526C12.7561 23.1028 12.5774 23.076 12.4166 23.0224C12.2558 22.9688 12.092 22.8974 11.9253 22.808L8.57518 20.9141C8.45011 20.8426 8.35185 20.7503 8.28038 20.6372C8.20891 20.524 8.17317 20.396 8.17317 20.253C8.17317 20.0386 8.2506 19.857 8.40545 19.7081C8.55434 19.5592 8.73599 19.4848 8.95039 19.4848H13.2921V8.93426L10.0224 10.0956C9.76632 10.1909 9.55787 10.3577 9.39707 10.5959C9.23626 10.8222 9.15586 11.0753 9.15586 11.3552V17.3675C9.15586 17.6176 9.09333 17.844 8.96826 18.0465C8.84915 18.2489 8.67941 18.4097 8.45905 18.5289L6.92248 19.3686C6.77955 19.446 6.63661 19.4848 6.49367 19.4848C6.24949 19.4848 6.04104 19.3984 5.86833 19.2257C5.69561 19.053 5.60925 18.8415 5.60925 18.5914V10.1224C5.60925 9.81272 5.68965 9.52387 5.85046 9.25587C6.01722 8.95808 6.2346 8.73176 6.50261 8.57692L12.0057 5.45018C12.1307 5.37872 12.2647 5.32511 12.4077 5.28938C12.5506 5.25365 12.6935 5.23578 12.8365 5.23578C12.9377 5.23578 13.03 5.24471 13.1134 5.26258C13.1968 5.27449 13.2891 5.29534 13.3904 5.32511L18.5093 6.74554C18.7058 6.79915 18.8815 6.87955 19.0363 6.98675C19.1912 7.09395 19.3252 7.222 19.4384 7.37089C19.5575 7.52574 19.6468 7.6925 19.7064 7.87117C19.7659 8.05579 19.7957 8.24638 19.7957 8.44291ZM18.6165 19.8778V8.44291C18.6165 8.30593 18.5807 8.18682 18.5093 8.08557C18.4199 7.97242 18.3097 7.90392 18.1787 7.8801L15.6595 7.18329C15.4748 7.12969 15.2783 7.07608 15.0699 7.02248C14.8733 6.95697 14.6798 6.90039 14.4892 6.85275V21.5037L18.1787 20.4228C18.3097 20.3989 18.4199 20.3364 18.5093 20.2352C18.5807 20.1339 18.6165 20.0148 18.6165 19.8778Z" fill="#FDFDFD"/>
</svg>