<svg xmlns="http://www.w3.org/2000/svg" width="28" height="28" viewBox="0 0 28 28" fill="none">
  <rect x="0.807739" y="0.963715" width="26.3078" height="26.3078" rx="13.1539" fill="#E94600"/>
  <path d="M20.5384 8.56981V20.056C20.5384 20.4568 20.4217 20.8157 20.1884 21.1328C19.9551 21.4439 19.641 21.6533 19.2462 21.761L14.1043 23.2416C14.0325 23.2595 13.9518 23.2775 13.862 23.2954H13.6646C13.4672 23.2954 13.2877 23.2685 13.1262 23.2147C12.9647 23.1608 12.8002 23.089 12.6326 22.9993L9.26756 21.0969C9.14193 21.0251 9.04322 20.9324 8.97143 20.8187C8.89964 20.7051 8.86374 20.5764 8.86374 20.4329C8.86374 20.2175 8.94152 20.035 9.09706 19.8855C9.24662 19.7359 9.42908 19.6611 9.64445 19.6611H14.0056V9.06336L10.7213 10.2299C10.464 10.3256 10.2546 10.4931 10.0931 10.7324C9.9316 10.9598 9.85084 11.214 9.85084 11.4952V17.5344C9.85084 17.7857 9.78802 18.013 9.66239 18.2164C9.54275 18.4198 9.37225 18.5813 9.1509 18.701L7.60745 19.5445C7.46387 19.6223 7.32029 19.6611 7.17671 19.6611C6.93144 19.6611 6.72205 19.5744 6.54856 19.4009C6.37507 19.2274 6.28833 19.015 6.28833 18.7638V10.2568C6.28833 9.94576 6.36909 9.65561 6.53062 9.3864C6.69812 9.08729 6.91648 8.85995 7.18569 8.70441L12.7134 5.56366C12.839 5.49187 12.9736 5.43803 13.1172 5.40214C13.2608 5.36624 13.4044 5.3483 13.5479 5.3483C13.6497 5.3483 13.7424 5.35727 13.8261 5.37522C13.9099 5.38718 14.0026 5.40812 14.1043 5.43803L19.2462 6.86483C19.4436 6.91867 19.6201 6.99943 19.7756 7.10712C19.9312 7.2148 20.0658 7.34342 20.1794 7.49298C20.2991 7.64852 20.3888 7.81603 20.4486 7.9955C20.5085 8.18095 20.5384 8.37239 20.5384 8.56981ZM19.3539 20.056V8.56981C19.3539 8.43221 19.318 8.31257 19.2462 8.21087C19.1564 8.0972 19.0458 8.0284 18.9141 8.00447L16.3836 7.30454C16.1981 7.25069 16.0007 7.19685 15.7913 7.14301C15.5939 7.07721 15.3995 7.02037 15.2081 6.97251V21.6892L18.9141 20.6034C19.0458 20.5794 19.1564 20.5166 19.2462 20.4149C19.318 20.3132 19.3539 20.1936 19.3539 20.056Z" fill="#FDFDFD"/>
</svg>